/* XPM */
static char * option1_xpm[] = {
"10 10 45 1",
" 	c None",
".	c #252525",
"+	c #2D2D2D",
"@	c #323232",
"#	c #313131",
"$	c #292929",
"%	c #303030",
"&	c #322E2A",
"*	c #2E251D",
"=	c #261F19",
"-	c #2C2A29",
";	c #2A2927",
">	c #414141",
",	c #6A6057",
"'	c #6A5947",
")	c #5D4730",
"!	c #4B331B",
"~	c #35200A",
"{	c #302D29",
"]	c #2F2C29",
"^	c #FFFFFF",
"/	c #9A7C5E",
"(	c #835F3B",
"_	c #704A23",
":	c #583410",
"<	c #402B16",
"[	c #34302C",
"}	c #A1784F",
"|	c #9B6A39",
"1	c #8D5924",
"2	c #744312",
"3	c #5D350E",
"4	c #333231",
"5	c #A56A2F",
"6	c #9B6022",
"7	c #8A4F14",
"8	c #6F4011",
"9	c #FFC55F",
"0	c #905517",
"a	c #64401B",
"b	c #3C352E",
"c	c #864D15",
"d	c #3F352C",
"e	c #483D31",
"f	c #463B2F",
"  .+@#$.  ",
" $#%&*=-; ",
".#>,')!~{]",
"+%,^/(_:<[",
"@&'/}|1234",
"#*)(|56784",
"$=!_1690ab",
".-~:270cde",
" ;{<38adf ",
"  ][44be  "};
