/* XPM */
static char * option2_xpm[] = {
"10 10 87 1",
" 	c None",
".	c #AF2B13",
"+	c #B33A1B",
"@	c #C44721",
"#	c #C2451F",
"$	c #AF3216",
"%	c #AA3016",
"&	c #D0491F",
"*	c #E5531E",
"=	c #EE5517",
"-	c #ED400D",
";	c #DF2E0B",
">	c #CB3A16",
",	c #AA3015",
"'	c #B52C13",
")	c #D54C1F",
"!	c #F3863A",
"~	c #FCD56F",
"{	c #FDD047",
"]	c #FDAC1E",
"^	c #FA710C",
"/	c #EF3605",
"(	c #D34216",
"_	c #C23A16",
":	c #BE3C1B",
"<	c #EA551E",
"[	c #FCD76F",
"}	c #FFFFFF",
"|	c #FEF680",
"1	c #FEE42E",
"2	c #FEBE11",
"3	c #FC7607",
"4	c #EF4909",
"5	c #C7421A",
"6	c #D04C21",
"7	c #F25A17",
"8	c #FDD347",
"9	c #FEF780",
"0	c #FEF75A",
"a	c #FEF12B",
"b	c #FEDF12",
"c	c #FDA807",
"d	c #F96C06",
"e	c #D24C1F",
"f	c #D34C1F",
"g	c #F3470D",
"h	c #FDB31E",
"i	c #FEE62E",
"j	c #FEF22B",
"k	c #FEF21D",
"l	c #FEE710",
"m	c #FEC408",
"n	c #FB8B07",
"o	c #D54E1F",
"p	c #C43816",
"q	c #EB360B",
"r	c #FC7B0C",
"s	c #FEC411",
"t	c #FEE112",
"u	c #FEE810",
"v	c #FFFE83",
"w	c #FDC90A",
"x	c #F9860C",
"y	c #D8531C",
"z	c #C63213",
"A	c #DE4216",
"B	c #F63E05",
"C	c #FD8007",
"D	c #FEAF07",
"E	c #FEC708",
"F	c #FECB0A",
"G	c #FDAC09",
"H	c #E95D1A",
"I	c #E4691F",
"J	c #C43615",
"K	c #E44C16",
"L	c #F55309",
"M	c #FB7406",
"N	c #FC9007",
"O	c #FA880C",
"P	c #EB5F1A",
"Q	c #DF5F1D",
"R	c #D54016",
"S	c #D7491A",
"T	c #DF531F",
"U	c #DE551C",
"V	c #E7691F",
"  .+@#$.  ",
" %&*=-;>, ",
"')!~{]^/(_",
":<[}|12345",
"67890abcde",
"fghijklmno",
"pqrstuvwxy",
"zABCDEFGHI",
" JKLMNOPQ ",
"  RSTTUV  "};
